<svg xmlns="http://www.w3.org/2000/svg" viewBox="115.42 17.524 83.255 261.471" width="83.255" height="261.471" preserveAspectRatio="xMidYMin meet">
  <g transform="matrix(-0.536585, 0, 0, 0.662266, 211.320511, 18.559702)" style="">
    <path d="M 178.064 378.351 C 178.064 385.856 174.354 392.289 166.009 392.289 L 36.185 392.289 C 27.839 392.289 24.13 385.856 24.13 378.351 L 24.13 158.561 C 24.13 132.293 43.14 122.644 59.367 108.706 C 64.63 104.185 72.351 94.232 72.351 79.758 L 72.351 10.604 C 72.351 5.243 77.45 -0.117 80.233 -0.117 L 121.962 -0.117 C 124.744 -0.117 129.844 5.243 129.844 10.604 L 129.844 79.758 C 129.844 94.232 137.563 104.185 142.826 108.706 C 159.055 122.644 178.064 132.293 178.064 158.561 L 178.064 378.351 Z" style="fill: rgb(228, 233, 244); fill-opacity: 0.59;"/>
    <path d="M 166.009 392.289 C 174.354 392.289 178.064 385.856 178.064 378.351 L 178.064 158.561 C 178.064 140.385 168.963 130.166 157.978 120.977 L 44.216 120.977 C 33.232 130.166 24.13 140.385 24.13 158.561 L 24.13 378.351 C 24.13 385.856 27.839 392.289 36.185 392.289 L 166.009 392.289 Z" style="fill: rgb(217, 253, 231);"/>
    <path d="M 132.283 12.146 C 132.283 5.373 127.529 -0.117 121.667 -0.117 L 80.528 -0.117 C 74.665 -0.117 69.912 5.373 69.912 12.146 L 69.912 62.729 C 69.912 64.422 71.1 65.795 72.566 65.795 L 129.628 65.795 C 131.087 65.795 132.269 64.438 132.283 62.758 L 132.283 12.146 Z" style="fill: rgb(217, 253, 231);"/>
    <path d="M 129.956 65.795 L 129.957 65.795 L 129.957 65.785 C 131.311 65.659 132.378 64.354 132.391 62.758 L 132.391 12.146 C 132.391 5.601 127.961 0.254 122.385 -0.099 C 122.287 -0.111 122.189 -0.117 122.093 -0.117 L 98.338 -0.117 C 98.389 -0.117 98.443 -0.111 98.496 -0.099 C 101.522 0.254 103.924 5.601 103.924 12.146 L 103.924 62.758 C 103.917 64.354 103.34 65.659 102.604 65.785 L 102.604 65.795 L 101.052 65.795 L 101.052 79.758 C 101.052 94.232 104.903 104.185 107.527 108.706 C 108.897 111.063 110.306 113.298 111.702 115.512 L 111.727 115.55 L 111.729 115.552 L 111.754 115.592 C 112.882 117.383 114.004 119.16 115.086 120.977 C 120.567 130.166 125.108 140.385 125.108 158.561 L 125.108 183.057 L 61.931 183.057 C 56.812 183.057 52.662 187.861 52.662 193.787 L 52.662 322.545 C 52.662 328.471 56.812 333.275 61.931 333.275 L 125.108 333.275 L 125.108 378.351 C 125.108 385.856 123.256 392.289 119.092 392.289 L 166.039 392.289 C 174.365 392.289 178.066 385.856 178.066 378.351 L 178.066 158.561 C 178.066 140.385 168.986 130.166 158.027 120.977 C 155.857 119.158 153.612 117.378 151.352 115.585 L 151.308 115.552 L 151.305 115.55 C 148.498 113.324 145.664 111.077 142.908 108.706 C 137.657 104.185 129.956 94.232 129.956 79.758 L 129.956 65.795 Z" style="fill-opacity: 0.2; fill: rgb(0, 73, 66);"/>
  </g>
</svg>