<?xml version="1.0" encoding="utf-8"?>
<!-- Generator: Adobe Illustrator 23.0.1, SVG Export Plug-In . SVG Version: 6.00 Build 0)  -->
<svg version="1.1" id="Layer_1" xmlns="http://www.w3.org/2000/svg" xmlns:xlink="http://www.w3.org/1999/xlink" x="0px" y="0px"
	 width="111.2px" height="141.7px" viewBox="0 0 111.2 141.7" enable-background="new 0 0 111.2 141.7" xml:space="preserve">
<g>
	<path fill="#0D4779" d="M88.2,95.5c-0.5,0-1.7,0.4-2.6,1c0,0-17.7,10.3-29.8,10.3S26,96.5,26,96.5c-1-0.6-2.2-1-2.8-1
		c-0.6,0-1.3,0.9-1.5,2L16.2,120c-0.3,1.1,0.4,1.9,1.5,1.9h10.1c1.1,0,2.4-0.8,3-1.7c0,0,4.5-8.1,25-8.1s25,8.1,25,8.1
		c0.5,1,1.9,1.7,3,1.7h10.1c1.1,0,1.8-0.9,1.5-1.9l-5.6-22.5C89.4,96.5,88.7,95.6,88.2,95.5z"/>
</g>
<g>
	<g>
		<circle fill="#0D4779" cx="56.3" cy="81.3" r="5.4"/>
		<path fill="#0D4779" d="M55.6,7.6c-27.6,0-50,22.4-50,50s22.4,50,50,50s50-22.4,50-50C105.6,30.1,83.2,7.6,55.6,7.6z M101.1,56.7
			h-5c-0.2-8.4-2.9-16.1-7.5-22.5l3.8-3.4C97.7,38.1,100.9,47.1,101.1,56.7z M94.3,57.6c0,21.3-17.3,38.7-38.7,38.7
			C34.3,96.3,17,78.9,17,57.6S34.3,19,55.6,19S94.3,36.3,94.3,57.6z M70.8,14.7c8.1,2.9,15.2,8,20.5,14.6l-3.8,3.4
			c-4.7-6-11-10.6-18.3-13.2L70.8,14.7z M55.6,12.1c4.7,0,9.2,0.7,13.5,2L67.5,19c-3.8-1.2-7.7-1.8-11.9-1.8c-5,0-9.8,0.9-14.2,2.6
			l-1.9-4.7C44.5,13.2,50,12.1,55.6,12.1z M37.9,15.7l1.9,4.7C32.3,23.6,26,29,21.6,35.7l-4.4-2.5C22.2,25.5,29.3,19.4,37.9,15.7z
			 M10.1,57.6c0-8.3,2.3-16.1,6.2-22.8l4.4,2.5c-3.5,6-5.5,12.9-5.5,20.4c0,1.9,0.1,3.8,0.4,5.7l-5,1.2C10.3,62.2,10.1,60,10.1,57.6
			z M10.9,66.3l4.9-1.2c1.4,7.6,4.9,14.4,9.9,19.9l-3,4C16.8,82.8,12.6,75,10.9,66.3z M43.5,101.5c-7.4-2.1-14.1-6-19.5-11.2l3.1-4
			c4.9,4.9,11,8.5,17.9,10.4L43.5,101.5z M55.6,103.1c-3.6,0-7-0.4-10.4-1.2l1.4-4.8c2.9,0.7,5.9,1,9,1c5.4,0,10.5-1.1,15.2-3l3,4.2
			C68.3,101.8,62.1,103.1,55.6,103.1z M75.5,98.5l-3-4.2c7.2-3.3,13.2-8.6,17.4-15.2L94,82C89.5,89.1,83.1,94.8,75.5,98.5z
			 M94.9,80.5l-4.1-2.9c3.2-5.7,5.1-12.1,5.3-19.1h5C100.9,66.5,98.7,74,94.9,80.5z"/>
	</g>
	<line fill="none" stroke="#0D4779" stroke-miterlimit="10" x1="36" y1="24.2" x2="36" y2="70"/>
	<line fill="none" stroke="#0D4779" stroke-miterlimit="10" x1="70" y1="57.6" x2="70" y2="93.7"/>
	<line fill="none" stroke="#0D4779" stroke-miterlimit="10" x1="81.5" y1="28.9" x2="81.5" y2="65.7"/>
	<line fill="none" stroke="#0D4779" stroke-miterlimit="10" x1="56" y1="17.5" x2="56" y2="48"/>
	
		<animateTransform  accumulate="none" additive="replace" attributeName="transform" attributeType="XML" calcMode="linear" dur="2s" fill="remove" from="0 55.6 57.4" repeatCount="indefinite" restart="always" to="360 55.6 57.4" type="rotate">
		</animateTransform>
</g>
</svg>
