<?xml version="1.0" encoding="utf-8"?>
<!-- Generator: Adobe Illustrator 23.0.1, SVG Export Plug-In . SVG Version: 6.00 Build 0)  -->
<svg version="1.1" id="Laag_1" xmlns="http://www.w3.org/2000/svg" xmlns:xlink="http://www.w3.org/1999/xlink" x="0px" y="0px"
	 width="75.8px" height="63.5px" viewBox="0 0 75.8 63.5" enable-background="new 0 0 75.8 63.5" xml:space="preserve">
<title>WWI-logo-small</title>
<g>
	<g id="Laag_2-2">
		<g>
			<g>
				<path fill="none" d="M48,55.8L48,55.8L48,55.8z"/>
				<polygon fill="#FFFFFF" points="24.7,15.3 24.7,15.3 24.7,15.3 48,55.8 48,55.8 48,55.8 52.4,63.5 44.6,63.5 17.9,17.7 				"/>
				<polygon fill="#FFFFFF" points="56,55.2 51.4,47.2 62.2,19.3 69,21.8 69,21.8 69,21.8 				"/>
				<polygon fill="#FFFFFF" points="24.7,15.3 24.7,15.3 48,55.8 				"/>
				<polygon fill="#C6C7C8" points="31.6,12.8 56,55.2 69,21.8 69,21.8 75.8,24.2 60.5,63.5 52.7,63.5 52.4,63.5 24.7,15.3 				"/>
			</g>
			<circle fill="#FFFFFF" cx="37.9" cy="3.7" r="3.7"/>
			<rect x="34.8" y="11.1" fill="#FFFFFF" width="6.2" height="25.1"/>
			<g>
				<path fill="none" d="M27.8,55.8L27.8,55.8L27.8,55.8z"/>
				<polygon fill="#FFFFFF" points="51,15.3 51,15.3 51,15.3 27.8,55.8 27.8,55.8 27.8,55.8 23.3,63.5 31.1,63.5 57.9,17.7 				"/>
				<polygon fill="#FFFFFF" points="19.8,55.2 24.4,47.2 13.5,19.3 6.8,21.8 6.8,21.8 6.8,21.8 				"/>
				<polygon fill="#FFFFFF" points="51,15.3 51,15.3 27.8,55.8 				"/>
				<polygon fill="#C6C7C8" points="44.2,12.8 19.8,55.2 6.8,21.8 6.8,21.8 0,24.2 15.3,63.5 23,63.5 23.3,63.5 51,15.3 				"/>
			</g>
			<g>
				<path fill="none" d="M48,55.8L48,55.8L48,55.8z"/>
				<polygon fill="#FFFFFF" points="24.7,15.3 24.7,15.3 24.7,15.3 48,55.8 48,55.8 48,55.8 52.4,63.5 44.6,63.5 17.9,17.7 				"/>
				<polygon fill="#FFFFFF" points="56,55.2 51.4,47.2 62.2,19.3 69,21.8 69,21.8 69,21.8 				"/>
				<polygon fill="#FFFFFF" points="24.7,15.3 24.7,15.3 48,55.8 				"/>
				<polygon fill="#C6C7C8" points="31.6,12.8 56,55.2 69,21.8 69,21.8 75.8,24.2 60.5,63.5 52.7,63.5 52.4,63.5 24.7,15.3 				"/>
			</g>
			<circle fill="#FFFFFF" cx="37.9" cy="3.7" r="3.7"/>
			<rect x="35.2" y="11.1" fill="#FFFFFF" width="5.4" height="25.1"/>
			<g>
				<path fill="none" d="M27.8,55.8L27.8,55.8L27.8,55.8z"/>
				<polygon fill="#FFFFFF" points="51,15.3 51,15.3 51,15.3 27.8,55.8 27.8,55.8 27.8,55.8 23.3,63.5 31.1,63.5 57.9,17.7 				"/>
				<polygon fill="#FFFFFF" points="19.8,55.2 24.4,47.2 13.5,19.3 6.8,21.8 6.8,21.8 6.8,21.8 				"/>
				<polygon fill="#FFFFFF" points="51,15.3 51,15.3 27.8,55.8 				"/>
				<polygon fill="#C6C7C8" points="44.2,12.8 19.8,55.2 6.8,21.8 6.8,21.8 0,24.2 15.3,63.5 23,63.5 23.3,63.5 51,15.3 				"/>
			</g>
		</g>
	</g>
</g>
</svg>
