<?xml version="1.0" encoding="utf-8"?>
<!-- Generator: Adobe Illustrator 23.0.1, SVG Export Plug-In . SVG Version: 6.00 Build 0)  -->
<svg version="1.1" id="Laag_1" xmlns="http://www.w3.org/2000/svg" xmlns:xlink="http://www.w3.org/1999/xlink" x="0px" y="0px"
	 width="208.5px" height="223.9px" viewBox="0 0 208.5 223.9" enable-background="new 0 0 208.5 223.9" xml:space="preserve">
<title>WWI-logo-complete_1</title>
<g>
	<g id="Laag_1-2">
		<g>
			<path fill="#001F60" d="M40.3,140.6h-4.7l-5.4-15.2l-5.4,15.2h-4.4L7,104.5h7l9.1,26.7l4.4-11.8l-5.7-14.8h6.1l10.5,26.3
				l8.4-26.3h6.4L40.3,140.6z"/>
			<path fill="#001F60" d="M76.6,140.6c-11.1,0-18.8-7.6-18.8-18.4s7.6-18.3,18.8-18.3s18.8,7.4,18.8,18.3S87.6,140.6,76.6,140.6z
				 M76.6,109.7c-6.7,0-11.6,5.4-11.6,12.5c0,7.1,4.9,12.5,11.6,12.5s11.6-5.3,11.6-12.5S83.3,109.7,76.6,109.7z"/>
			<path fill="#001F60" d="M123.3,139.9l-8.1-14.2h-3.4v14.2H105v-35.4h11.8c5.2,0,7.5,0.6,9.6,2.6c1.9,1.8,2.9,4.3,2.9,7.7
				c0.1,2.4-0.6,4.7-1.9,6.7c-1.3,1.7-2.6,2.5-5.5,3.3l8.8,15.2L123.3,139.9L123.3,139.9z M116.3,110.3h-4.4v9.7h4.4
				c4.3,0,6.2-1.5,6.2-5S120.7,110.3,116.3,110.3z"/>
			<path fill="#001F60" d="M139.6,139.9v-35.4h6.8v29.7h14.5v5.7H139.6z"/>
			<path fill="#001F60" d="M196.5,134.7c-3.3,3.5-7.9,5.2-14.3,5.2h-13.1v-35.4h13.1c6.7,0,10.9,1.5,14.4,5.2
				c3.1,3.4,4.8,7.8,4.8,12.4C201.4,126.8,199.6,131.3,196.5,134.7z M190,112.6c-1.9-1.4-4.6-2.1-8.5-2.1h-5.4V134h5.4
				c8,0,12.6-4.2,12.6-11.8C194.1,118.1,192.5,114.4,190,112.6z"/>
		</g>
		<g>
			<path fill="#001F60" d="M33.4,184.4h-4.7l-5.4-15.2l-5.4,15.2h-4.4L0,148.4h7.1l9.1,26.6l4.4-11.8l-5.7-14.9H21l10.4,26.3
				l8.4-26.3h6.4L33.4,184.4z"/>
			<path fill="#001F60" d="M79.2,183.8v-15.2H61v15.2h-6.7v-35.4H61v14.2h18.2v-14.2H86v35.4L79.2,183.8L79.2,183.8z"/>
			<path fill="#001F60" d="M98.7,183.8v-35.4h6.8v35.4L98.7,183.8L98.7,183.8z"/>
			<path fill="#001F60" d="M137.7,156.8c-3.8-1.7-6.8-2.5-9.2-2.5c-3.2,0-5.2,1.3-5.2,3.3c0,1.5,0.9,2.4,3.4,3.8
				c5.4,2.9,9,5.1,10.6,6.8c1.6,1.7,2.5,4,2.4,6.3c0,6.3-4.6,10-12.4,10c-1.1,0-2.1-0.1-3.2-0.2c-2.5-0.3-3.7-0.8-7.4-2.5l-2.3-1.1
				l2.8-6.2c1.6,0.9,3.3,1.8,5,2.5c1.6,0.6,3.4,0.9,5.1,1c3.1,0,5.1-1.4,5.1-3.5c0-1.5-0.8-2.5-3.1-3.8l-5.4-3.1
				c-6.3-3.6-8.2-5.9-8.2-9.8c0-1.7,0.5-3.4,1.4-4.9c0.7-1,1.6-1.9,2.6-2.6c2.6-1.8,4.8-2.4,8.9-2.4c2.2,0,4.5,0.3,6.6,0.9
				c1.7,0.5,3.4,1.2,5,2L137.7,156.8z"/>
			<path fill="#001F60" d="M168.3,183.8L156.5,167v16.8h-6.8v-35.4h6.8v16.5l11.1-16.5h7.8l-12.2,17.2l12.9,18.2L168.3,183.8
				L168.3,183.8z"/>
			<path fill="#001F60" d="M196.7,168.6v15.2h-6.8v-15.2l-10.8-20.2h7.4l7.1,13.8l7.4-13.8h7.4L196.7,168.6z"/>
		</g>
		<g>
			<path fill="#001F60" d="M36.5,223.6v-31.4h3.9v31.4H36.5z"/>
			<path fill="#001F60" d="M73,223.9l-15.9-24.5c-0.1-0.2-0.4-0.6-0.6-1.1c-0.4-0.6-0.7-1.2-0.9-1.9v27.3h-3.9v-31.4h5.1l15.6,24
				c0.2,0.2,0.3,0.5,0.4,0.8l0.8,1.9v-26.7h3.9V224H73V223.9z"/>
			<path fill="#001F60" d="M110.9,219.1c-2.9,3.3-6.1,4.6-11.6,4.6H88.9v-31.5h10.5c9.2,0,15.8,6.5,15.8,15.6
				C115.2,211.9,113.7,215.9,110.9,219.1z M98.7,195.5h-6v24.9h6c4.2,0,6.5-0.8,8.5-2.9c2.4-2.7,3.8-6.2,3.9-9.8
				c0.1-6.6-5.1-12.1-11.7-12.3C99.1,195.5,98.9,195.5,98.7,195.5z"/>
			<path fill="#001F60" d="M123.7,223.6v-31.4h17.7v3.3h-13.8V206H139v3.3h-11.4v11.1h14.2v3.3L123.7,223.6z"/>
			<path fill="#001F60" d="M167.5,223.6l-8.7-12.8l-8.8,12.8h-4.5l11-16.1L146,192.1h4.5l8.3,12.1l8.3-12.1h4.4L161,207.6l11,16
				H167.5z"/>
		</g>
	</g>
	<g id="Laag_2-2">
		<g>
			<rect x="59.8" fill="#001F60" width="88.9" height="88.8"/>
			<g>
				<path fill="none" d="M114.4,65.4L114.4,65.4L114.4,65.4z"/>
				<polygon fill="#FFFFFF" points="91.1,24.9 91.1,24.9 91.1,24.9 114.3,65.4 114.4,65.4 114.4,65.4 118.8,73.1 111,73.1 
					84.3,27.4 				"/>
				<polygon fill="#FFFFFF" points="122.3,64.8 117.7,56.8 128.6,28.9 135.4,31.4 135.4,31.4 135.4,31.4 				"/>
				<polygon fill="#FFFFFF" points="91.1,24.9 91.1,24.9 114.3,65.4 				"/>
				<polygon fill="#C6C7C8" points="97.9,22.4 122.3,64.8 135.4,31.4 135.4,31.4 142.1,33.8 126.8,73.1 119.1,73.1 118.8,73.1 
					91.1,24.9 				"/>
			</g>
			<circle fill="#FFFFFF" cx="104.2" cy="13.3" r="3.7"/>
			<rect x="101.2" y="20.7" fill="#FFFFFF" width="6.2" height="25.1"/>
			<g>
				<path fill="none" d="M94.1,65.4L94.1,65.4L94.1,65.4z"/>
				<polygon fill="#FFFFFF" points="117.4,24.9 117.4,24.9 117.4,24.9 94.1,65.4 94.1,65.4 94.1,65.4 89.7,73.1 97.5,73.1 
					124.2,27.4 				"/>
				<polygon fill="#FFFFFF" points="86.2,64.8 90.8,56.8 79.9,28.9 73.1,31.4 73.1,31.4 73.1,31.4 				"/>
				<polygon fill="#FFFFFF" points="117.4,24.9 117.4,24.9 94.1,65.4 				"/>
				<polygon fill="#C6C7C8" points="110.5,22.4 86.2,64.8 73.1,31.4 73.1,31.4 66.3,33.8 81.7,73.1 89.4,73.1 89.7,73.1 117.4,24.9 
									"/>
			</g>
			<rect x="59.8" fill="#001F60" width="88.9" height="88.8"/>
			<g>
				<path fill="none" d="M114.4,65.4L114.4,65.4L114.4,65.4z"/>
				<polygon fill="#FFFFFF" points="91.1,24.9 91.1,24.9 91.1,24.9 114.3,65.4 114.4,65.4 114.4,65.4 118.8,73.1 111,73.1 
					84.3,27.4 				"/>
				<polygon fill="#FFFFFF" points="122.3,64.8 117.7,56.8 128.6,28.9 135.4,31.4 135.4,31.4 135.4,31.4 				"/>
				<polygon fill="#FFFFFF" points="91.1,24.9 91.1,24.9 114.3,65.4 				"/>
				<polygon fill="#C6C7C8" points="97.9,22.4 122.3,64.8 135.4,31.4 135.4,31.4 142.1,33.8 126.8,73.1 119.1,73.1 118.8,73.1 
					91.1,24.9 				"/>
			</g>
			<circle fill="#FFFFFF" cx="104.2" cy="13.3" r="3.7"/>
			<rect x="101.5" y="20.7" fill="#FFFFFF" width="5.4" height="25.1"/>
			<g>
				<path fill="none" d="M94.1,65.4L94.1,65.4L94.1,65.4z"/>
				<polygon fill="#FFFFFF" points="117.4,24.9 117.4,24.9 117.4,24.9 94.1,65.4 94.1,65.4 94.1,65.4 89.7,73.1 97.5,73.1 
					124.2,27.4 				"/>
				<polygon fill="#FFFFFF" points="86.2,64.8 90.8,56.8 79.9,28.9 73.1,31.4 73.1,31.4 73.1,31.4 				"/>
				<polygon fill="#FFFFFF" points="117.4,24.9 117.4,24.9 94.1,65.4 				"/>
				<polygon fill="#C6C7C8" points="110.5,22.4 86.2,64.8 73.1,31.4 73.1,31.4 66.3,33.8 81.7,73.1 89.4,73.1 89.7,73.1 117.4,24.9 
									"/>
			</g>
		</g>
	</g>
</g>
</svg>
